# xmcd
#
# Track frame offsets: 
#        150
#        14470
#        40920
#        58430
#        83930
#        98330
#        119890
#        133922
#        146750
#        158195
#        169350
#        185010
#        203237
#
# Disc length: 2911 seconds
#
# Revision: 7
# Processed by: cddbd v1.5.1PL0 Copyright (c) Steve Scherf et al.
# Submitted via: ExactAudioCopy v0.95a5
#
DISCID=c70b5d0d
DTITLE=Various Artist - Not the Same Old Blues Crap II
DYEAR=2001
DGENRE=Blues
TTITLE0=Scott Dunbar - Easy Rider
TTITLE1=R. L. Burnside - Goin' Down South
TTITLE2=R.L. Burnside - Walkin' Blues
TTITLE3=Junior Kimbrough and Charlie Feathers - I Feel Good Again
TTITLE4=Junior Kimbrough - Meet Me In the City
TTITLE5=Robert Belfour - Black Mattie
TTITLE6=Asie Payton - Goin' Back To the Bridge
TTITLE7=Asie Payton - Please Tell Me You Love Me
TTITLE8=Paul Jones - Goin' Back Home
TTITLE9=Paul Jones - I'm Gonna Leave
TTITLE10=T-Model Ford - Sail On
TTITLE11=King Ernest - House Where Nobody Lives
TTITLE12=Super Chikan - El Camino
EXTD=LABEL =Fat Possum Records, LLC\nID =80342-2\nUPC =04577-80342-
EXTD=22\nCOPYRIGHT =2001
EXTT0=
EXTT1=
EXTT2=
EXTT3=
EXTT4=
EXTT5=
EXTT6=
EXTT7=
EXTT8=
EXTT9=
EXTT10=
EXTT11=
EXTT12=
PLAYORDER=
